<?xml version="1.0" encoding="utf-8"?><svg xml:space="preserve" viewBox="0 0 100 100" y="0" x="0" xmlns="http://www.w3.org/2000/svg" id="圖層_1" version="1.1" width="200px" height="200px" xmlns:xlink="http://www.w3.org/1999/xlink" style="width:100%;height:100%;background-size:initial;background-repeat-y:initial;background-repeat-x:initial;background-position-y:initial;background-position-x:initial;background-origin:initial;background-color:initial;background-clip:initial;background-attachment:initial;animation-play-state:paused" ><g class="ldl-scale" style="transform-origin:50% 50%;transform:rotate(0deg) scale(0.8, 0.8);animation-play-state:paused" ><path stroke="#333" fill="#abbd81" stroke-miterlimit="10" stroke-width="3.5" d="M80.7 41.7c0-17.7-14.9-31.9-32.9-30.6-15.1 1-27.4 13.3-28.4 28.4C18.3 54.2 27.8 67 41 71c2 .6 3.5 2.1 4.2 4.1l4.4 13.6c.1.4.7.4.8 0l4.4-13.6c.6-2 2.2-3.5 4.2-4.1 12.5-3.8 21.7-15.5 21.7-29.3zM50 54.8c-7.3 0-13.2-5.9-13.2-13.2 0-7.3 5.9-13.2 13.2-13.2s13.2 5.9 13.2 13.2c0 7.4-5.9 13.2-13.2 13.2z" style="stroke:rgb(51, 51, 51);fill:rgb(189, 129, 156);animation-play-state:paused" ></path>
<path stroke-miterlimit="10" stroke-width="3.5" stroke="#000" stroke-linejoin="round" opacity=".2" d="M47.8 11.1c-1.4.1-2.8.3-4.2.6C57.5 14.6 68 26.9 68 41.7c0 13.8-9.1 25.5-21.7 29.4-1 .3-1.9.9-2.6 1.6.7.7 1.2 1.5 1.5 2.5l4.4 13.6c.1.4.7.4.8 0l4.4-13.6c.6-2 2.2-3.5 4.2-4.1 12.6-3.8 21.7-15.5 21.7-29.4 0-17.7-14.9-31.9-32.9-30.6z" style="animation-play-state:paused" ></path>
<path stroke-miterlimit="10" stroke-width="3.5" stroke="#fff" stroke-linecap="round" fill="none" d="M32.4 24.4c2.4-2.5 5.4-4.5 8.8-5.7" style="stroke:rgb(255, 255, 255);animation-play-state:paused" ></path>
<path stroke-miterlimit="10" stroke-width="3.5" stroke="#fff" stroke-linecap="round" fill="none" d="M27.7 32.2c.2-.6.4-1.2.7-1.7" style="stroke:rgb(255, 255, 255);animation-play-state:paused" ></path>
</g></svg>